<?xml version="1.0" encoding="UTF-8"?>
<svg xmlns="http://www.w3.org/2000/svg" xmlns:xlink="http://www.w3.org/1999/xlink" width="32" height="32" viewBox="0 0 32 32" version="1.1">
<g id="surface1">
<path style=" stroke:none;fill-rule:nonzero;fill:rgb(0%,0%,0%);fill-opacity:1;" d="M 7.273438 0 L 14.546875 0 L 14.546875 3.636719 L 18.183594 3.636719 L 18.183594 0 L 25.453125 0 L 25.453125 3.636719 L 29.089844 3.636719 L 29.089844 7.273438 L 32.726562 7.273438 L 32.726562 18.183594 L 29.089844 18.183594 L 29.089844 21.816406 L 25.453125 21.816406 L 25.453125 25.453125 L 21.816406 25.453125 L 21.816406 29.089844 L 18.183594 29.089844 L 18.183594 32.726562 L 14.546875 32.726562 L 14.546875 29.089844 L 10.910156 29.089844 L 10.910156 25.453125 L 7.273438 25.453125 L 7.273438 21.816406 L 3.636719 21.816406 L 3.636719 18.183594 L 0 18.183594 L 0 7.273438 L 3.636719 7.273438 L 3.636719 3.636719 L 7.273438 3.636719 Z M 7.273438 0 "/>
<path style=" stroke:none;fill-rule:nonzero;fill:rgb(15.686275%,15.686275%,15.686275%);fill-opacity:1;" d="M 7.273438 3.636719 L 14.546875 3.636719 L 14.546875 7.273438 L 18.183594 7.273438 L 18.183594 3.636719 L 25.453125 3.636719 L 25.453125 7.273438 L 29.089844 7.273438 L 29.089844 18.183594 L 25.453125 18.183594 L 25.453125 21.816406 L 21.816406 21.816406 L 21.816406 25.453125 L 18.183594 25.453125 L 18.183594 29.089844 L 14.546875 29.089844 L 14.546875 25.453125 L 10.910156 25.453125 L 10.910156 21.816406 L 7.273438 21.816406 L 7.273438 18.183594 L 3.636719 18.183594 L 3.636719 7.273438 L 7.273438 7.273438 L 7.273438 3.636719 "/>
</g>
</svg>
