<?xml version="1.0" encoding="UTF-8"?>
<svg xmlns="http://www.w3.org/2000/svg" xmlns:xlink="http://www.w3.org/1999/xlink" width="32" height="32" viewBox="0 0 32 32" version="1.1">
<g id="surface1">
<path style=" stroke:none;fill-rule:nonzero;fill:rgb(0%,0%,0%);fill-opacity:1;" d="M 7.109375 0 L 14.222656 0 L 14.222656 3.554688 L 17.777344 3.554688 L 17.777344 0 L 24.890625 0 L 24.890625 3.554688 L 28.445312 3.554688 L 28.445312 7.109375 L 32 7.109375 L 32 17.777344 L 28.445312 17.777344 L 28.445312 21.332031 L 24.890625 21.332031 L 24.890625 24.890625 L 21.332031 24.890625 L 21.332031 28.445312 L 17.777344 28.445312 L 17.777344 32 L 14.222656 32 L 14.222656 28.445312 L 10.667969 28.445312 L 10.667969 24.890625 L 7.109375 24.890625 L 7.109375 21.332031 L 3.554688 21.332031 L 3.554688 17.777344 L 0 17.777344 L 0 7.109375 L 3.554688 7.109375 L 3.554688 3.554688 L 7.109375 3.554688 Z M 7.109375 0 "/>
<path style=" stroke:none;fill-rule:nonzero;fill:rgb(100%,0%,0%);fill-opacity:1;" d="M 7.109375 3.554688 L 14.222656 3.554688 L 14.222656 7.109375 L 17.777344 7.109375 L 17.777344 3.554688 L 24.890625 3.554688 L 24.890625 7.109375 L 28.445312 7.109375 L 28.445312 17.777344 L 24.890625 17.777344 L 24.890625 21.332031 L 21.332031 21.332031 L 21.332031 24.890625 L 17.777344 24.890625 L 17.777344 28.445312 L 14.222656 28.445312 L 14.222656 24.890625 L 10.667969 24.890625 L 10.667969 21.332031 L 7.109375 21.332031 L 7.109375 17.777344 L 3.554688 17.777344 L 3.554688 7.109375 L 7.109375 7.109375 L 7.109375 3.554688 "/>
<path style=" stroke:none;fill-rule:nonzero;fill:rgb(100%,78.431373%,78.431373%);fill-opacity:1;" d="M 7.109375 10.667969 L 7.109375 7.109375 L 10.667969 7.109375 L 10.667969 10.667969 Z M 7.109375 10.667969 "/>
<path style=" stroke:none;fill-rule:nonzero;fill:rgb(73.333333%,7.45098%,7.45098%);fill-opacity:1;" d="M 3.554688 14.222656 L 7.109375 14.222656 L 7.109375 17.777344 L 10.667969 17.777344 L 10.667969 21.332031 L 14.222656 21.332031 L 14.222656 24.890625 L 17.777344 24.890625 L 17.777344 21.332031 L 21.332031 21.332031 L 21.332031 17.777344 L 24.890625 17.777344 L 24.890625 14.222656 L 28.445312 14.222656 L 28.445312 17.777344 L 24.890625 17.777344 L 24.890625 21.332031 L 21.332031 21.332031 L 21.332031 24.890625 L 17.777344 24.890625 L 17.777344 28.445312 L 14.222656 28.445312 L 14.222656 24.890625 L 10.667969 24.890625 L 10.667969 21.332031 L 7.109375 21.332031 L 7.109375 17.777344 L 3.554688 17.777344 L 3.554688 14.222656 "/>
</g>
</svg>
