<svg xmlns="http://www.w3.org/2000/svg" viewBox="0 -0.5 9 9" shape-rendering="crispEdges">
<metadata>Made with Pixels to Svg https://codepen.io/shshaw/pen/XbxvNj</metadata>
<path stroke="#000000" d="M2 0h5M1 1h1M7 1h1M0 2h1M8 2h1M0 3h1M8 3h1M0 4h1M8 4h1M0 5h1M8 5h1M0 6h1M8 6h1M1 7h1M7 7h1M2 8h5" />
<path stroke="#e6b32b" d="M2 1h5M1 2h1M6 2h2M1 3h1M6 3h2M1 4h1M6 4h2M1 5h1M6 5h2M2 6h5" />
<path stroke="#ffc630" d="M2 2h4M2 3h4M2 4h4M2 5h4" />
<path stroke="#b08921" d="M1 6h1M7 6h1M2 7h5" />
</svg>